<svg width="24" height="24" viewBox="0 0 24 24" fill="none" xmlns="http://www.w3.org/2000/svg">
<path d="M1 12V8C1 7.26361 1.59696 6.66667 2.33333 6.66667H7.66667M1 12V18.6667C1 19.4031 1.59696 20 2.33333 20H21C21.7364 20 22.3333 19.4031 22.3333 18.6667V12M1 12L10.3333 13.3333H13L22.3333 12M7.66667 6.66667V5.33333C7.66667 4.59696 8.26363 4 9 4H14.3333C15.0697 4 15.6667 4.59696 15.6667 5.33333V6.66667M7.66667 6.66667H15.6667M22.3333 12V8C22.3333 7.26361 21.7364 6.66667 21 6.66667H15.6667M10.3333 15.3333H13" stroke="#757575" stroke-linecap="round" stroke-linejoin="round"/>
</svg>
