<svg width="48" height="48" viewBox="0 0 48 48" fill="none" xmlns="http://www.w3.org/2000/svg">
<rect x="48" y="48" width="48" height="48" rx="24" transform="rotate(180 48 48)" fill="#F3F3F3"/>
<path d="M12.4393 22.9394L17.7539 17.6248C18.0468 17.3318 18.4307 17.1854 18.8146 17.1854C19.1985 17.1854 19.5824 17.3318 19.8753 17.6248C20.461 18.2106 20.461 19.1603 19.8753 19.7461L17.1213 22.5H34.5C35.3284 22.5 36 23.1716 36 24C36 24.8284 35.3284 25.5 34.5 25.5H17.1213L19.8753 28.2539C20.461 28.8397 20.461 29.7894 19.8753 30.3752C19.2894 30.961 18.3398 30.961 17.7539 30.3752L12.4393 25.0606C11.8536 24.4749 11.8536 23.5251 12.4393 22.9394Z" fill="#6C6C6C"/>
</svg>
