<svg width="58" height="58" viewBox="0 0 58 58" fill="none" xmlns="http://www.w3.org/2000/svg">
    <path
        d="M30.2574 24.5L34.7574 29M34.7574 29L39.2574 33.5M34.7574 29L39.2574 24.5M34.7574 29L30.2574 33.5M22.2427 41H43.7574C46.5858 41 48 41 48.8787 40.1213C49.7574 39.2426 49.7574 37.8284 49.7574 35V23C49.7574 20.1716 49.7574 18.7574 48.8787 17.8787C48 17 46.5858 17 43.7574 17H22.2427C21.0164 17 20.4033 17 19.852 17.2284C19.3007 17.4567 18.8671 17.8903 18 18.7574L12 24.7574C10 26.7575 9 27.7574 9 29C9 30.2426 10 31.2425 12 33.2426L18 39.2426C18.8671 40.1096 19.3007 40.5434 19.852 40.7717C20.4033 41 21.0164 41 22.2427 41Z"
        stroke="#383838" stroke-width="2" stroke-linecap="round" stroke-linejoin="round" />
</svg>