<svg width="46" height="40" viewBox="0 0 46 40" fill="none" xmlns="http://www.w3.org/2000/svg">
<path d="M37.9854 18.3345L34.7773 20.0205H23.1907V19.2201H34.4862L36.9549 17.2899C36.7686 15.5869 35.9301 10.9602 32.198 8.21832V6.78775L32.6463 5.83404C32.6463 5.83404 27.9243 0.599976 19.8137 0.599976C11.7031 0.599976 6.17176 5.91919 4.49491 10.4834C2.82387 15.0476 3.2722 18.7035 3.2722 18.7035L1.85152 19.4982V19.5436H11.5633V20.0205H0V21.9336L45.345 21.8882V21.2467L37.9854 18.3345ZM7.91266 10.3982C7.91266 10.3982 11.3129 3.02967 19.7904 3.02967C28.2678 3.02967 31.6681 10.3982 31.6681 10.3982C18.8297 -0.592168 7.91266 10.3982 7.91266 10.3982Z" fill="#42B7E9"/>
<path d="M36.6869 23.3528C36.4656 32.3506 29.1003 39.5999 20.0988 39.5999C11.0973 39.5999 3.72617 32.3506 3.51074 23.3528H10.9693C11.1847 28.2292 15.2021 32.1122 20.0988 32.1122C24.9955 32.1122 29.0071 28.2292 29.2225 23.3528H36.6869Z" fill="#F57E20"/>
</svg>
