<svg width="24" height="24" viewBox="0 0 24 24" fill="none" xmlns="http://www.w3.org/2000/svg">
<path d="M19 9.14286C19 11.6113 16.2594 16.2724 14.2078 19.649C13.2554 21.2163 12.7792 22 12 22C11.2208 22 10.7446 21.2163 9.7922 19.649C7.74068 16.2724 5 11.6113 5 9.14286C5 5.19797 8.13401 2 12 2C15.866 2 19 5.19797 19 9.14286Z" stroke="#757575" stroke-linecap="round" stroke-linejoin="round"/>
<path d="M15 9C15 10.6568 13.6568 12 12 12C10.3432 12 9 10.6568 9 9C9 7.34315 10.3432 6 12 6C13.6568 6 15 7.34315 15 9Z" stroke="#757575" stroke-linecap="round" stroke-linejoin="round"/>
</svg>
