<svg width="32" height="32" viewBox="0 0 32 32" fill="none" xmlns="http://www.w3.org/2000/svg">
<path d="M11.2476 28H8.12381C6.39858 28 5 26.6015 5 24.8762V13.8177C5 12.9057 5.39849 12.0394 6.09087 11.4459L13.9004 4.75203C15.0702 3.74932 16.7964 3.74932 17.9663 4.75203L25.7758 11.4459C26.4682 12.0394 26.8667 12.9057 26.8667 13.8177V24.8762C26.8667 26.6015 25.4681 28 23.7429 28H20.6191M11.2476 28V18.6286C11.2476 17.7659 11.9469 17.0667 12.8095 17.0667H19.0572C19.9198 17.0667 20.6191 17.7659 20.6191 18.6286V28M11.2476 28H20.6191" stroke="#757575" stroke-width="2.5" stroke-linecap="round" stroke-linejoin="round"/>
</svg>
