<svg width="32" height="32" viewBox="0 0 32 32" fill="none" xmlns="http://www.w3.org/2000/svg">
<path d="M21 9.33328C21 12.2789 18.612 14.6666 15.6666 14.6666C12.7212 14.6666 10.3333 12.2789 10.3333 9.33328C10.3333 6.38778 12.7212 4 15.6666 4C18.612 4 21 6.38778 21 9.33328Z" stroke="#757575" stroke-width="2.5" stroke-linecap="round" stroke-linejoin="round"/>
<path d="M20.4351 20H10.8981C10.0401 20 9.61129 20 9.22763 20.0615C7.89983 20.2742 6.75162 21.0215 6.10837 22.0919C5.92252 22.4012 5.78689 22.7687 5.5156 23.5037C5.18965 24.3869 5.02669 24.8285 5.00464 25.1846C4.92691 26.441 5.83234 27.5756 7.17672 27.9062C7.55775 28 8.07315 28.0001 9.10388 28.0001H22.2294C23.2602 28.0001 23.7756 28 24.1566 27.9062C25.5008 27.5756 26.4062 26.441 26.3285 25.1846C26.3066 24.8285 26.1434 24.3869 25.8176 23.5037C25.5464 22.7687 25.4108 22.4012 25.2248 22.0919C24.5817 21.0215 23.4333 20.2742 22.1055 20.0615C21.7218 20 21.2931 20 20.4351 20Z" stroke="#757575" stroke-width="2.5" stroke-linecap="round" stroke-linejoin="round"/>
</svg>
