<svg width="24" height="24" viewBox="0 0 24 24" fill="none" xmlns="http://www.w3.org/2000/svg">
<path d="M20.6729 17.2878L13.5237 4.90444C13.2016 4.34657 12.6014 4 11.9571 4C11.3129 4 10.7132 4.34657 10.3913 4.90444L3.24158 17.2872C2.91947 17.8451 2.91947 18.5379 3.24158 19.0958C3.5637 19.6537 4.16369 20 4.80764 20H19.1069C19.7509 20 20.3514 19.6537 20.673 19.0958C20.9951 18.5379 20.9951 17.8451 20.6729 17.2878ZM11.9574 17.9635C11.3392 17.9635 10.8373 17.4621 10.8373 16.8437C10.8373 16.2255 11.3392 15.7241 11.9574 15.7241C12.5756 15.7241 13.077 16.2255 13.077 16.8437C13.077 17.4621 12.5756 17.9635 11.9574 17.9635ZM12.6472 14.3797C12.6472 14.7607 12.3382 15.0693 11.9574 15.0693C11.5761 15.0693 11.2675 14.7607 11.2675 14.3797L10.8373 9.31586C10.8373 8.69739 11.3392 8.19603 11.9574 8.19603C12.5756 8.19603 13.077 8.69743 13.077 9.31586L12.6472 14.3797Z" fill="#F57E20"/>
</svg>
