<svg width="16" height="16" viewBox="0 0 16 16" fill="none" xmlns="http://www.w3.org/2000/svg">
<path d="M1 2.75H8M1 13.25H8M1 8H2.75M13.25 2.75H15M13.25 2.75C13.25 3.7165 12.4665 4.5 11.5 4.5C10.5335 4.5 9.75 3.7165 9.75 2.75C9.75 1.7835 10.5335 1 11.5 1C12.4665 1 13.25 1.7835 13.25 2.75ZM13.25 13.25H15M13.25 13.25C13.25 14.2165 12.4665 15 11.5 15C10.5335 15 9.75 14.2165 9.75 13.25C9.75 12.2835 10.5335 11.5 11.5 11.5C12.4665 11.5 13.25 12.2835 13.25 13.25ZM8 8H15M8 8C8 8.9665 7.2165 9.75 6.25 9.75C5.2835 9.75 4.5 8.9665 4.5 8C4.5 7.0335 5.2835 6.25 6.25 6.25C7.2165 6.25 8 7.0335 8 8Z" stroke="#383838" stroke-linecap="round" stroke-linejoin="round"/>
</svg>
